<svg xmlns="http://www.w3.org/2000/svg" viewBox="0 0 500 220" width="500" height="220" fill="none">
  <!-- Mortarboard cap -->
  <path d="M50 16 L94 36 L50 56 L6 36 Z" fill="#1e3a8a" />
  <path d="M50 16 L94 36 L50 42 L6 36 Z" fill="#2563eb" />
  <path d="M26 46 L26 64 C26 76, 74 76, 74 64 L74 46 Z" fill="#1e40af" />
  <path d="M86 38 Q98 48, 95 72" stroke="#1d4ed8" stroke-width="3" fill="none" stroke-linecap="round" />
  <circle cx="95" cy="74" r="4" fill="#f59e0b" />

  <!-- Pillar forming 'I' -->
  <polygon points="14,80 50,80 50,136 14,118" fill="#0284c7" />
  <polygon points="50,80 86,80 86,118 50,136" fill="#1d4ed8" />
  <polygon points="14,118 50,136 50,172 14,152" fill="#f59e0b" />
  <polygon points="50,136 86,118 86,152 50,172" fill="#0284c7" />
  <polygon points="14,152 50,172 50,210 14,210" fill="#9d174d" />
  <polygon points="50,172 86,152 86,210 50,210" fill="#701a75" />

  <!-- Letters FMT -->
  <path d="M116 80 H192 V106 H148 V130 H184 V154 H148 V210 H116 Z" fill="#1e40af" />
  <path d="M208 80 H244 L270 152 L296 80 H332 V210 H302 V136 L280 194 H260 L238 136 V210 H208 Z" fill="#1e40af" />
  <path d="M344 80 H440 V106 H408 V210 H376 V106 H344 Z" fill="#1e40af" />

  <!-- HAMMAMET -->
  <text x="282" y="200" text-anchor="middle" fill="#1e3a8a" font-family="system-ui, -apple-system, sans-serif" font-weight="800" font-size="28" letter-spacing="6">HAMMAMET</text>
</svg>
